# xmcd
#
# Track frame offsets: 
#        183
#        12358
#        25568
#        39963
#        51833
#        66358
#        78858
#        91193
#        105690
#        117708
#        131470
#        143133
#        156508
#        167208
#        181480
#        195670
#
# Disc length: 2764 seconds
#
# Revision: 2
# Processed by: cddbd v1.4PL0 Copyright (c) Steve Scherf et al.
# Submitted via: ExactAudioCopy v0.90b4
#
DISCID=d50aca10
DTITLE=Dolly Parton - I WILL ALWAYS LOVE YOU
DYEAR=1997
DGENRE=
TTITLE0=Jolene
TTITLE1=I Will Always Love You
TTITLE2=Lonely Comin' Down
TTITLE3=It's My Time
TTITLE4=Harper Valley PTA
TTITLE5=Mama Say A Prayer
TTITLE6=D.I.V.O.R.C.E
TTITLE7=We Used To
TTITLE8=Bobby's Arms
TTITLE9=The Seeker
TTITLE10=Hold Me
TTITLE11=Here You Come Again
TTITLE12=Lovin' You
TTITLE13=Sweet Music Man
TTITLE14=I Really Got The Feeling
TTITLE15=Baby I'm Burning
EXTD=
EXTT0=
EXTT1=
EXTT2=
EXTT3=
EXTT4=
EXTT5=
EXTT6=
EXTT7=
EXTT8=
EXTT9=
EXTT10=
EXTT11=
EXTT12=
EXTT13=
EXTT14=
EXTT15=
PLAYORDER=
